<svg height='300px' width='300px'  fill="#eb3b49" xmlns="http://www.w3.org/2000/svg" xmlns:xlink="http://www.w3.org/1999/xlink" version="1.1" x="0px" y="0px" viewBox="0 0 1024 1024" style="enable-background:new 0 0 1024 1024;" xml:space="preserve"><path d="M926.8,859.3v-636c0-0.3,0-0.6,0-0.8c-1-23.4-19.5-41.8-43.2-42.3c-5.8-0.1-11.5,0-17.3,0h-74.8V130  c0-10.5-9.2-20.5-20-20h-98.7c-10.8,0-20,9.2-20,20v50.2H371.1V130c-0.5-10.8-8.8-20-20-20h-98.7c-10.8,0-20,9.2-20,20v50.1  c-30.6-0.1-61.2-0.5-91.8,0.1c-21.3,0.4-40,15.5-42.9,37c-0.4,3-0.6,5.9-0.6,8.9v642c0,3.7,0.2,7.2,0.8,10.9  c3.5,20.4,22.2,34.6,42.4,35c4.4,0.1,8.7,0,13.1,0h726.1c1.3,0,2.6,0,3.9,0c19.8-0.4,38-13.9,42.2-33.6  C927.1,873.4,926.8,866.3,926.8,859.3z M272.4,150h58.7v87.4h-58.7V150z M726.2,524.8c-4.1,4.1-8.3,8.2-12.5,12.3  c-28,27.7-56,55.3-84,83c0.4,2.8,0.9,5.5,1.3,8.3c6.5,41.5,13,83.1,19.4,124.6c1,6.2-0.3,11.7-5.4,15.8c-4.9,3.9-11.3,4-16.7,1.2  c-5.1-2.7-10.3-5.4-15.4-8.2c-33.6-17.7-67.3-35.6-100.9-53.2c-2.7,1.4-5.3,2.7-8,4.1c-36.2,19.1-72.4,38.2-108.6,57.3  c-5.5,2.9-11.7,2.5-16.7-1.2c-5.2-3.9-6.3-9.7-5.4-15.8c0.9-5.9,1.8-11.7,2.7-17.6c6-38.4,12-76.8,18-115.3  c-2.4-2.4-4.8-4.7-7.2-7.1c-29.8-29.4-59.6-58.8-89.3-88.2c-7.4-7.3-4.8-23.2,6.6-25.1c5.7-0.9,11.5-1.8,17.2-2.8  c38.4-6.2,76.8-12.4,115.2-18.5c1.7-3.3,3.4-6.7,5-10.1c19.1-38,38.2-76,57.2-114c1.6-3.3,4.6-5.5,8-6.5c0,0,0.1,0,0.1,0  c0.1,0,0.2,0,0.2-0.1c0.6-0.2,1.1-0.3,1.8-0.4c0.6-0.1,1.3-0.2,2-0.2c0.3,0,0.6,0,0.9,0c0.3,0,0.6,0,1,0c0.7,0,1.3,0.1,2,0.2  c0.6,0.1,1.2,0.3,1.8,0.4c0.1,0,0.1,0,0.2,0.1c0,0,0.1,0,0.1,0c0.3,0.1,0.6,0.2,0.9,0.3c3,1.2,5.6,3.3,7.1,6.2  c2.7,5.3,5.4,10.7,8,16c18.1,36,36.2,72,54.3,108.1c3.7,0.6,7.5,1.2,11.2,1.8c40.4,6.5,80.8,13,121.1,19.5  C731,501.6,733.6,517.6,726.2,524.8z M751.5,237.4h-58.7V150h58.7V237.4z"></path></svg>