<svg height='300px' width='300px'  fill="#ffffff" xmlns:rdf="http://www.w3.org/1999/02/22-rdf-syntax-ns#" xmlns="http://www.w3.org/2000/svg" xmlns:cc="http://creativecommons.org/ns#" xmlns:dc="http://purl.org/dc/elements/1.1/" version="1.1" viewBox="0 0 99.20332 99.20332" enable-background="new 0 0 507.921 507.921" x="0px" y="0px"><path d="m17.795 2.8633c-0.816 0-1.479 0.6611-1.479 1.4765v3.4258h-9.1637c-3.9443 0-7.1523 3.2094-7.1523 7.1544v64.223c0 4.6 3.7432 8.343 8.3438 8.343h61.072c2.444 5.671 8.088 9.651 14.645 9.651 8.789 0 15.939-7.151 15.939-15.94 0-6.666-4.116-12.385-9.938-14.761v-51.516c0-3.944-3.208-7.1544-7.152-7.1544h-9.164v-3.4258c0-0.8154-0.661-1.4765-1.476-1.4765-0.816 0-1.477 0.6611-1.477 1.4765v3.4258h-15.205v-3.4258c0-0.8154-0.661-1.4765-1.477-1.4765-0.815 0-1.476 0.6611-1.476 1.4765v3.4258h-15.205v-3.4258c0-0.8154-0.661-1.4765-1.477-1.4765-0.815 0-1.476 0.6611-1.476 1.4765v3.4258h-15.206v-3.4258c0-0.8154-0.661-1.4765-1.476-1.4765zm-10.643 7.8557h9.1637v2.236c-2.732 0.665-4.767 3.132-4.767 6.066 0 3.444 2.801 6.245 6.244 6.245s6.246-2.801 6.246-6.245c0-2.934-2.037-5.401-4.769-6.066v-2.236h15.205v2.236c-2.733 0.665-4.768 3.132-4.768 6.066 0 3.444 2.801 6.245 6.244 6.245s6.246-2.801 6.246-6.245c0-2.934-2.037-5.401-4.769-6.066v-2.236h15.205v2.236c-2.733 0.665-4.768 3.132-4.768 6.066 0 3.444 2.801 6.245 6.244 6.245 3.444 0 6.246-2.801 6.246-6.245 0-2.934-2.034-5.401-4.767-6.066v-2.236h15.205v2.236c-2.733 0.665-4.77 3.132-4.77 6.066 0 3.444 2.803 6.245 6.247 6.245 3.443 0 6.244-2.801 6.244-6.245 0-2.934-2.035-5.401-4.768-6.066v-2.236h9.162c2.316 0 4.201 1.885 4.201 4.201v12.01h-84.156l0.0001-12.01c0-2.316 1.8833-4.201 4.1992-4.201zm9.1637 5.365v2.937c0 0.816 0.663 1.477 1.479 1.477 0.815 0 1.476-0.661 1.476-1.477v-2.937c1.075 0.542 1.815 1.654 1.815 2.937 0 1.815-1.476 3.291-3.291 3.291s-3.293-1.476-3.293-3.291c0-1.283 0.74-2.395 1.814-2.937zm18.161 0v2.937c0 0.816 0.661 1.477 1.476 1.477 0.816 0 1.475-0.661 1.475-1.477v-2.937c1.074 0.542 1.816 1.654 1.816 2.937 0 1.815-1.476 3.291-3.291 3.291s-3.293-1.476-3.293-3.291c0-1.283 0.742-2.395 1.817-2.937zm18.158 0v2.937c0 0.816 0.661 1.477 1.476 1.477 0.816 0 1.477-0.661 1.477-1.477v-2.937c1.074 0.542 1.814 1.654 1.814 2.937 0 1.815-1.476 3.291-3.291 3.291s-3.293-1.476-3.293-3.291c0-1.283 0.742-2.395 1.817-2.937zm18.158 0v2.937c0 0.816 0.661 1.477 1.477 1.477 0.815 0 1.476-0.661 1.476-1.477v-2.937c1.075 0.542 1.815 1.654 1.815 2.937 0 1.815-1.477 3.291-3.291 3.291-1.815 0-3.293-1.476-3.293-3.291 0-1.283 0.741-2.395 1.816-2.937zm-56.346 19.121h3.416c2.22 0 4.028 1.806 4.028 4.025v3.416c0 2.22-1.808 4.026-4.028 4.026h-3.416c-2.219 0-4.025-1.806-4.025-4.026v-3.416c0-2.219 1.806-4.025 4.025-4.025zm14.438 0h3.418c2.219 0 4.025 1.806 4.025 4.025v3.416c0 2.22-1.806 4.026-4.025 4.026h-3.418c-2.22 0-4.024-1.806-4.024-4.026v-3.416c0-2.219 1.804-4.025 4.024-4.025zm14.437 0h3.418c2.22 0 4.026 1.806 4.026 4.025v3.416c0 2.22-1.806 4.026-4.026 4.026h-3.418c-2.219 0-4.023-1.806-4.023-4.026v-3.416c0-2.219 1.804-4.025 4.023-4.025zm14.44 0h3.416c2.219 0 4.025 1.806 4.025 4.025v3.416c0 2.22-1.806 4.026-4.025 4.026h-3.416c-2.22 0-4.028-1.806-4.028-4.026v-3.416c0-2.219 1.808-4.025 4.028-4.025zm14.437 0h3.416c2.22 0 4.026 1.806 4.026 4.025v3.416c0 2.22-1.806 4.026-4.026 4.026h-3.416c-2.219 0-4.027-1.806-4.027-4.026v-3.416c0-2.219 1.808-4.025 4.027-4.025zm-57.752 2.953c-0.591 0-1.072 0.481-1.072 1.072v3.416c0 0.592 0.481 1.073 1.072 1.073h3.416c0.592 0 1.075-0.481 1.075-1.073v-3.416c0-0.591-0.483-1.072-1.075-1.072h-3.416zm14.438 0c-0.591 0-1.071 0.481-1.071 1.072v3.416c0 0.592 0.48 1.073 1.071 1.073h3.418c0.591 0 1.072-0.481 1.072-1.073v-3.416c0-0.591-0.481-1.072-1.072-1.072h-3.418zm14.437 0c-0.591 0-1.07 0.481-1.07 1.072v3.416c0 0.592 0.479 1.073 1.07 1.073h3.418c0.591 0 1.072-0.481 1.072-1.073v-3.416c0-0.591-0.481-1.072-1.072-1.072h-3.418zm14.44 0c-0.592 0-1.073 0.481-1.073 1.072v3.416c0 0.592 0.481 1.073 1.073 1.073h3.416c0.591 0 1.072-0.481 1.072-1.073v-3.416c0-0.591-0.481-1.072-1.072-1.072h-3.416zm14.437 0c-0.591 0-1.072 0.481-1.072 1.072v3.416c0 0.592 0.481 1.073 1.072 1.073h3.416c0.591 0 1.073-0.481 1.073-1.073v-3.416c0-0.591-0.482-1.072-1.073-1.072h-3.416zm-57.752 11.619h3.416c2.22 0 4.028 1.806 4.028 4.026v3.416c0 2.219-1.808 4.025-4.028 4.025h-3.416c-2.219 0-4.025-1.806-4.025-4.025v-3.416c0-2.22 1.806-4.026 4.025-4.026zm14.438 0h3.418c2.219 0 4.025 1.806 4.025 4.026v3.416c0 2.219-1.806 4.025-4.025 4.025h-3.418c-2.22 0-4.024-1.806-4.024-4.025v-3.416c0-2.22 1.804-4.026 4.024-4.026zm14.437 0h3.418c2.22 0 4.026 1.806 4.026 4.026v3.416c0 2.219-1.806 4.025-4.026 4.025h-3.418c-2.219 0-4.023-1.806-4.023-4.025v-3.416c0-2.22 1.804-4.026 4.023-4.026zm14.44 0h3.416c2.219 0 4.025 1.806 4.025 4.026v3.416c0 2.219-1.806 4.025-4.025 4.025h-3.416c-2.22 0-4.028-1.806-4.028-4.025v-3.416c0-2.22 1.808-4.026 4.028-4.026zm14.437 0h3.416c2.22 0 4.026 1.806 4.026 4.026v3.416c0 2.219-1.806 4.025-4.026 4.025h-3.416c-2.219 0-4.027-1.806-4.027-4.025v-3.416c0-2.22 1.808-4.026 4.027-4.026zm-57.752 2.953c-0.591 0-1.072 0.482-1.072 1.073v3.416c0 0.591 0.481 1.072 1.072 1.072h3.416c0.592 0 1.075-0.481 1.075-1.072v-3.416c0-0.591-0.483-1.073-1.075-1.073h-3.416zm14.438 0c-0.591 0-1.071 0.482-1.071 1.073v3.416c0 0.591 0.48 1.072 1.071 1.072h3.418c0.591 0 1.072-0.481 1.072-1.072v-3.416c0-0.591-0.481-1.073-1.072-1.073h-3.418zm14.437 0c-0.591 0-1.07 0.482-1.07 1.073v3.416c0 0.591 0.479 1.072 1.07 1.072h3.418c0.591 0 1.072-0.481 1.072-1.072v-3.416c0-0.591-0.481-1.073-1.072-1.073h-3.418zm14.44 0c-0.592 0-1.073 0.482-1.073 1.073v3.416c0 0.591 0.481 1.072 1.073 1.072h3.416c0.591 0 1.072-0.481 1.072-1.072v-3.416c0-0.591-0.481-1.073-1.072-1.073h-3.416zm14.437 0c-0.591 0-1.072 0.482-1.072 1.073v3.416c0 0.591 0.481 1.072 1.072 1.072h3.416c0.591 0 1.073-0.481 1.073-1.072v-3.416c0-0.591-0.482-1.073-1.073-1.073h-3.416zm-57.752 11.622h3.416c2.22 0 4.028 1.804 4.028 4.023v3.418c0 2.22-1.808 4.025-4.028 4.025h-3.416c-2.219 0-4.025-1.805-4.025-4.025v-3.418c0-2.22 1.806-4.023 4.025-4.023zm14.438 0h3.418c2.219 0 4.025 1.803 4.025 4.023v3.418c0 2.22-1.806 4.025-4.025 4.025h-3.418c-2.22 0-4.024-1.805-4.024-4.025v-3.418c0-2.22 1.804-4.023 4.024-4.023zm14.437 0h3.418c2.22 0 4.026 1.803 4.026 4.023v3.418c0 2.22-1.806 4.025-4.026 4.025h-3.418c-2.219 0-4.023-1.805-4.023-4.025v-3.418c0-2.22 1.804-4.023 4.023-4.023zm14.354 0h3.416c2.219 0 4.025 1.803 4.025 4.023v3.418c0 2.22-1.806 4.025-4.025 4.025h-3.416c-2.22 0-4.026-1.805-4.026-4.025v-3.418c0-2.22 1.806-4.023 4.026-4.023zm-43.229 2.951c-0.591 0-1.072 0.481-1.072 1.072v3.418c0 0.591 0.481 1.072 1.072 1.072h3.416c0.592 0 1.075-0.481 1.075-1.072v-3.418c0-0.591-0.483-1.072-1.075-1.072h-3.416zm14.438 0.002c-0.591 0-1.071 0.481-1.071 1.072v3.416c0 0.591 0.48 1.072 1.071 1.072h3.418c0.591 0 1.072-0.481 1.072-1.072v-3.416c0-0.591-0.481-1.072-1.072-1.072h-3.418zm14.437 0c-0.591 0-1.07 0.481-1.07 1.072v3.416c0 0.591 0.479 1.072 1.07 1.072h3.418c0.591 0 1.072-0.481 1.072-1.072v-3.416c0-0.591-0.481-1.072-1.072-1.072h-3.418zm14.354 0c-0.591 0-1.072 0.481-1.072 1.072v3.416c0 0.591 0.481 1.072 1.072 1.072h3.416c0.591 0 1.072-0.481 1.072-1.072v-3.416c0-0.591-0.481-1.072-1.072-1.072h-3.416zm26.385 0.906c7.16 0 12.986 5.826 12.986 12.986 0 7.161-5.826 12.987-12.986 12.987-7.161 0-12.987-5.826-12.987-12.987 0-2.537 0.732-4.995 2.115-7.107 0.069-0.105 0.116-0.184 0.231-0.326 1.058-1.471 2.238-2.514 3.613-3.5 0.046-0.023 0.091-0.047 0.135-0.075 2.062-1.293 4.445-1.978 6.893-1.978zm0.003 2.764c-0.815 0-1.476 0.661-1.476 1.476v8.709c0 0.816 0.661 1.477 1.476 1.477h8.741c0.815 0 1.476-0.661 1.476-1.477 0-0.815-0.661-1.476-1.476-1.476h-7.264v-7.233c0-0.815-0.661-1.476-1.477-1.476z" transform="scale(.99203)"></path></svg>