<svg height='300px' width='300px'  fill="#ffffff" xmlns="http://www.w3.org/2000/svg" xmlns:xlink="http://www.w3.org/1999/xlink" version="1.1" x="0px" y="0px" viewBox="0 0 100 100" enable-background="new 0 0 100 100" xml:space="preserve"><g display="none"><rect x="-1009.245" y="-34.243" display="inline" fill="#ffffff" width="1329.133" height="1263.126"></rect></g><g><g><path fill="none" d="M33.982,52.204c0-4.475-3.64-8.115-8.115-8.115s-8.115,3.64-8.115,8.115s3.64,8.115,8.115,8.115    S33.982,56.679,33.982,52.204z"></path><path fill="none" d="M79.925,52.465c0-4.475-3.641-8.115-8.115-8.115s-8.115,3.641-8.115,8.115s3.64,8.115,8.115,8.115    S79.925,56.94,79.925,52.465z"></path><path fill="none" d="M48.843,52.281c5.476,0,9.931-4.455,9.931-9.931s-4.455-9.931-9.931-9.931s-9.931,4.455-9.931,9.931    S43.367,52.281,48.843,52.281z"></path><path d="M36.912,42.35c0,4.688,2.711,8.734,6.645,10.684c-4.728,1.048-8.276,5.268-8.276,10.306v0.726    c-1.231-1.417-2.887-2.441-4.76-2.886c3.243-1.685,5.461-5.068,5.461-8.975c0-5.586-4.529-10.115-10.115-10.115    s-10.115,4.529-10.115,10.115c0,3.907,2.219,7.29,5.461,8.975c-4.001,0.954-6.99,4.555-6.99,8.849v21.179c0,0.552,0.447,1,1,1    s1-0.448,1-1v-0.994V70.028c0-3.917,3.182-7.104,7.093-7.104h5.098c3.271,0,6.066,2.23,6.866,5.316v3.019v23.126    c0,0.552,0.447,1,1,1c0.552,0,0.999-0.447,1-0.998c0-0.001,0-0.001,0-0.002V63.34c0-4.721,3.841-8.562,8.563-8.562h6.004    c4.715,0,8.551,3.841,8.551,8.562v31.086v0.002c0,0.552,0.447,1,1,1s1-0.448,1-1V71.52v-3.018    c0.801-3.089,3.596-5.318,6.866-5.318h5.097c3.911,0,7.093,3.187,7.093,7.104v20.185v0.995c0,0.552,0.447,1,1,1s1-0.448,1-1    v-21.18c0-4.294-2.988-7.894-6.989-8.848c3.243-1.685,5.462-5.068,5.462-8.975c0-5.586-4.529-10.115-10.115-10.115    c-5.586,0-10.115,4.529-10.115,10.115c0,3.907,2.219,7.29,5.462,8.975c-1.873,0.446-3.528,1.469-4.759,2.887V63.34    c0-5.038-3.545-9.258-8.268-10.306c3.934-1.951,6.645-5.996,6.645-10.684c0-6.589-5.342-11.931-11.931-11.931    C42.253,30.419,36.912,35.76,36.912,42.35z M25.867,60.319c-4.475,0-8.115-3.641-8.115-8.115s3.64-8.115,8.115-8.115    s8.115,3.64,8.115,8.115S30.341,60.319,25.867,60.319z M63.695,52.465c0-4.475,3.64-8.115,8.115-8.115s8.115,3.641,8.115,8.115    s-3.641,8.115-8.115,8.115S63.695,56.94,63.695,52.465z M48.843,32.419c5.476,0,9.931,4.455,9.931,9.931s-4.455,9.931-9.931,9.931    s-9.931-4.455-9.931-9.931S43.367,32.419,48.843,32.419z"></path><path d="M60.421,9.498c0.531,0,0.963-0.432,0.963-0.963V6.316c0-0.531-0.432-0.963-0.963-0.963s-0.964,0.432-0.964,0.963v2.218    C59.458,9.066,59.89,9.498,60.421,9.498z"></path><path d="M60.421,16.438c0.531,0,0.963-0.432,0.963-0.963v-2.218c0-0.531-0.432-0.963-0.963-0.963s-0.964,0.432-0.964,0.963v2.218    C59.458,16.006,59.89,16.438,60.421,16.438z"></path><path d="M62.782,11.859H65c0.531,0,0.963-0.432,0.963-0.963S65.532,9.932,65,9.932h-2.219c-0.531,0-0.963,0.432-0.963,0.963    S62.25,11.859,62.782,11.859z"></path><path d="M55.842,11.859h2.218c0.531,0,0.964-0.432,0.964-0.963s-0.433-0.963-0.964-0.963h-2.218c-0.531,0-0.964,0.432-0.964,0.963    S55.311,11.859,55.842,11.859z"></path><path d="M10.055,36.434c-0.183,0.182-0.283,0.424-0.283,0.681c0,0.257,0.101,0.5,0.283,0.682c0.375,0.376,0.987,0.375,1.362,0    l1.568-1.569c0.376-0.375,0.376-0.987,0-1.362c-0.182-0.182-0.424-0.282-0.681-0.282c-0.258,0-0.5,0.1-0.682,0.282L10.055,36.434z    "></path><path d="M6.51,42.704l1.568-1.569c0.375-0.376,0.375-0.987,0-1.362c-0.182-0.182-0.424-0.282-0.681-0.282    c-0.258,0-0.5,0.1-0.682,0.282l-1.568,1.568c-0.183,0.182-0.283,0.424-0.283,0.681c0,0.257,0.101,0.5,0.283,0.682    C5.523,43.079,6.135,43.081,6.51,42.704z"></path><path d="M12.986,42.704c0.375-0.375,0.375-0.987,0-1.363l-1.568-1.568c-0.182-0.182-0.424-0.282-0.681-0.282    c-0.258,0-0.5,0.1-0.682,0.282c-0.183,0.182-0.283,0.424-0.283,0.682c0.001,0.257,0.101,0.499,0.283,0.681l1.568,1.569    C11.999,43.081,12.611,43.08,12.986,42.704z"></path><path d="M6.716,37.797c0.362,0.364,0.998,0.365,1.362,0c0.375-0.375,0.375-0.987,0-1.363L6.51,34.866    c-0.188-0.188-0.435-0.282-0.682-0.282c-0.246,0-0.493,0.094-0.681,0.282c-0.375,0.375-0.375,0.987,0,1.363L6.716,37.797z"></path><path d="M13.518,10.714c0.531,0,0.963-0.432,0.963-0.963V7.533c0-0.531-0.432-0.964-0.963-0.964s-0.964,0.433-0.964,0.964V9.75    C12.554,10.282,12.987,10.714,13.518,10.714z"></path><path d="M13.518,17.654c0.531,0,0.963-0.432,0.963-0.963v-2.218c0-0.531-0.432-0.963-0.963-0.963s-0.964,0.432-0.964,0.963v2.218    C12.554,17.222,12.987,17.654,13.518,17.654z"></path><path d="M15.878,13.075h2.219c0.531,0,0.963-0.432,0.963-0.963s-0.432-0.963-0.963-0.963h-2.219c-0.531,0-0.963,0.432-0.963,0.963    S15.347,13.075,15.878,13.075z"></path><path d="M8.939,13.075h2.219c0.531,0,0.963-0.432,0.963-0.963s-0.432-0.963-0.963-0.963H8.939c-0.531,0-0.963,0.432-0.963,0.963    S8.408,13.075,8.939,13.075z"></path><path d="M95.135,5.572c0-0.552-0.447-1-1-1s-1,0.448-1,1c0,1.872-0.771,2.741-1.748,3.84c-1.056,1.189-2.252,2.536-2.252,5.168    c0,2.633,1.196,3.98,2.252,5.17c0.977,1.1,1.748,1.969,1.748,3.842c0,1.872-0.771,2.741-1.748,3.84    c-1.056,1.189-2.252,2.536-2.252,5.168c0,2.634,1.196,3.982,2.252,5.171c0.977,1.101,1.748,1.97,1.748,3.844    s-0.771,2.743-1.748,3.844c-1.056,1.189-2.252,2.538-2.252,5.171c0,0.552,0.447,1,1,1s1-0.448,1-1    c0-1.874,0.771-2.744,1.748-3.844c1.056-1.189,2.252-2.538,2.252-5.171s-1.196-3.981-2.252-5.171    c-0.977-1.101-1.748-1.97-1.748-3.844c0-1.872,0.771-2.741,1.748-3.84c1.056-1.189,2.252-2.536,2.252-5.168    c0-2.633-1.196-3.98-2.252-5.17c-0.977-1.1-1.748-1.969-1.748-3.842c0-1.872,0.771-2.741,1.748-3.84    C93.939,9.552,95.135,8.205,95.135,5.572z"></path><path d="M24.078,26.429c0.256,0,0.512-0.098,0.707-0.293c0.459-0.458,1.046-0.385,2.277-0.107    c1.267,0.284,2.848,0.641,4.131-0.645c1.284-1.284,0.929-2.862,0.644-4.13c-0.124-0.551-0.203-0.969-0.216-1.308    c-0.016-0.419,0.07-0.717,0.323-0.97c0.33-0.331,0.733-0.38,1.394-0.279c0.252,0.039,0.539,0.098,0.879,0.175    c1.268,0.285,2.844,0.641,4.128-0.641c1.145-1.145,0.984-2.522,0.733-3.706c-0.03-0.143-0.062-0.285-0.093-0.422    c-0.277-1.23-0.352-1.817,0.104-2.273c0.456-0.457,1.043-0.382,2.272-0.104c0.393,0.089,0.817,0.179,1.251,0.23    c0.968,0.114,1.992,0.015,2.877-0.87c0.391-0.391,0.391-1.023,0-1.414s-1.023-0.391-1.414,0c-0.456,0.456-1.045,0.381-2.272,0.104    c-1.267-0.286-2.846-0.642-4.128,0.64c-1.283,1.283-0.927,2.86-0.641,4.128c0.124,0.552,0.204,0.969,0.217,1.308    c0.016,0.417-0.07,0.713-0.322,0.965c-0.329,0.33-0.731,0.38-1.39,0.279c-0.254-0.039-0.542-0.098-0.884-0.175    c-1.269-0.287-2.847-0.642-4.128,0.641c-1.147,1.147-0.987,2.526-0.736,3.712c0.03,0.142,0.061,0.283,0.092,0.419    c0.277,1.232,0.351,1.819-0.106,2.277c-0.458,0.458-1.046,0.385-2.277,0.107c-0.392-0.088-0.816-0.177-1.25-0.228    c-0.968-0.113-1.994-0.014-2.881,0.873c-0.391,0.391-0.391,1.023,0,1.414C23.566,26.331,23.822,26.429,24.078,26.429z"></path><path d="M73.624,29.637c0.178-0.047,0.32-0.151,0.442-0.273c0.241-0.244,0.364-0.594,0.269-0.949    c-0.092-0.346-0.095-0.713-0.009-1.063c0.141-0.578,0.498-1.066,1.008-1.376c0.51-0.311,1.108-0.404,1.687-0.263    c0.581,0.142,1.07,0.502,1.381,1.021c0.307,0.504,0.398,1.098,0.258,1.673c-0.141,0.579-0.498,1.068-1.005,1.377    c-0.509,0.31-1.107,0.404-1.689,0.261c-0.351-0.085-0.694,0.04-0.933,0.279c-0.125,0.125-0.23,0.272-0.275,0.456    c-0.131,0.537,0.198,1.078,0.735,1.208c0.335,0.082,0.674,0.122,1.011,0.122c0.768,0,1.521-0.21,2.192-0.619    c0.963-0.587,1.641-1.515,1.907-2.611c0.267-1.094,0.092-2.225-0.488-3.18c-0.584-0.977-1.515-1.663-2.621-1.932    c-1.098-0.265-2.232-0.089-3.199,0.498c-0.966,0.588-1.645,1.516-1.911,2.611c-0.164,0.672-0.158,1.38,0.019,2.048    C72.542,29.46,73.091,29.776,73.624,29.637z"></path></g></g></svg>