<svg height='300px' width='300px'  fill="#eb3b49" xmlns="http://www.w3.org/2000/svg" data-name="Layer 1" viewBox="0 0 100 100" x="0px" y="0px"><title>Artboard 472</title><path d="M18,98H82A16,16,0,0,0,98,82V26A16,16,0,0,0,82,10H78V6a4,4,0,0,0-8,0v4H54V6a4,4,0,0,0-8,0v4H30V6a4,4,0,0,0-8,0v4H18A16,16,0,0,0,2,26V82A16,16,0,0,0,18,98Zm64-8H18a8,8,0,0,1-8-8V42H90V82A8,8,0,0,1,82,90ZM18,18h4v4a4,4,0,0,0,8,0V18H46v4a4,4,0,0,0,8,0V18H70v4a4,4,0,0,0,8,0V18h4a8,8,0,0,1,8,8v8H10V26A8,8,0,0,1,18,18Z"></path><path d="M59.17,55.17,46,68.34l-5.17-5.17a4,4,0,0,0-5.66,5.66l8,8a4,4,0,0,0,5.66,0l16-16a4,4,0,0,0-5.66-5.66Z"></path></svg>