<svg height='300px' width='300px'  fill="#eb3b49" xmlns="http://www.w3.org/2000/svg" xmlns:xlink="http://www.w3.org/1999/xlink" xml:space="preserve" version="1.1" style="shape-rendering:geometricPrecision;text-rendering:geometricPrecision;image-rendering:optimizeQuality;" viewBox="0 0 318.7 426.28" x="0px" y="0px" fill-rule="evenodd" clip-rule="evenodd"><defs><style type="text/css">
   
    .fil0 {fill:#eb3b49}
   
  </style></defs><g><path class="fil0" d="M82.1 165.62l154.5 0 0 -48.02c0,-42.46 -34.79,-77.25 -77.26,-77.25 -42.55,0 -77.24,34.7 -77.24,77.25l0 48.02zm194.85 2.1c24.02,6.72 41.75,28.85 41.75,54.94l0 146.58c0,31.38 -25.66,57.04 -57.03,57.04l-204.63 0c-31.38,0 -57.04,-25.66 -57.04,-57.04l0 -146.58c0,-26.09 17.73,-48.22 41.74,-54.94l0 -50.12c0,-64.62 52.99,-117.6 117.6,-117.6 64.7,0 117.61,52.9 117.61,117.6l0 50.12zm-117.6 74.34c20.26,0 36.69,16.43 36.69,36.68 0,11.22 -5.04,21.26 -12.97,27.98 -4.38,3.72 -6.67,8.65 -6.67,14.4l0 11.69c0,9.4 -7.68,17.04 -17.06,17.04 -9.38,0 -17.04,-7.66 -17.04,-17.04l0 -11.69c0,-5.75 -2.29,-10.68 -6.66,-14.4 -7.93,-6.72 -12.98,-16.76 -12.98,-27.98 0,-20.25 16.44,-36.68 36.69,-36.68z"></path></g></svg>