<svg height='300px' width='300px'  fill="#FFFFFF" xmlns="http://www.w3.org/2000/svg" xmlns:xlink="http://www.w3.org/1999/xlink" version="1.1" viewBox="0 0 82.618 70.475" overflow="visible" enable-background="new 0 0 82.618 70.475" xml:space="preserve" x="0px" y="0px"><g><path d="M44.238,28.35V7.573c0-0.972-0.4-1.857-1.058-2.486c-0.629-0.657-1.515-1.058-2.486-1.058H7.573   c-0.972,0-1.857,0.4-2.486,1.058C4.429,5.716,4.029,6.602,4.029,7.573v55.328c0,0.972,0.4,1.857,1.057,2.515   c0.629,0.629,1.515,1.029,2.486,1.029h33.122c0.972,0,1.857-0.4,2.486-1.029h0.028c0.629-0.657,1.029-1.543,1.029-2.515V42.153   h4.029v20.748c0,2.086-0.857,3.973-2.229,5.344l0,0l0,0c-1.371,1.372-3.258,2.229-5.344,2.229H7.573   c-2.086,0-3.972-0.857-5.344-2.229C0.857,66.874,0,64.987,0,62.901V7.573c0-2.086,0.857-3.972,2.229-5.344l0,0   C3.601,0.857,5.487,0,7.573,0h33.122c2.086,0,3.973,0.857,5.344,2.229c1.372,1.372,2.229,3.258,2.229,5.344V28.35H44.238z    M64.271,16.89l16.918,16.919l1.43,1.429l-1.43,1.429L64.271,53.613l-2.857-2.857l13.488-13.489H24.034v-4.03h50.868L61.413,19.719   L64.271,16.89z"></path></g></svg>