<svg height='300px' width='300px'  fill="#eb3b49" xmlns="http://www.w3.org/2000/svg" xmlns:xlink="http://www.w3.org/1999/xlink" version="1.1" x="0px" y="0px" viewBox="0 0 32 32" style="enable-background:new 0 0 32 32;" xml:space="preserve"><g><path d="M26.47998,25.02997V2.45001C26.47998,1.64996,25.83002,1,25.03003,1H2.45001C1.65002,1,1,1.64996,1,2.45001v22.57996   c0,0.79999,0.65002,1.45001,1.45001,1.45001h22.58002C25.83002,26.47998,26.47998,25.82996,26.47998,25.02997z M19.98999,15.19   H15.19v4.79999c0,0.79999-0.65002,1.45001-1.45001,1.45001s-1.45001-0.65002-1.45001-1.45001V15.19H7.5   c-0.81,0-1.45001-0.65002-1.45001-1.45001S6.69,12.28998,7.5,12.28998h4.78998V7.5c0-0.81,0.65002-1.45001,1.45001-1.45001   S15.19,6.69,15.19,7.5v4.78998h4.79999c0.79999,0,1.45001,0.65002,1.45001,1.45001S20.78998,15.19,19.98999,15.19z"></path><path d="M29.5484,5.62933c-0.80188,0-1.4516,0.64978-1.4516,1.45166v21.01575H7.08099c-0.80188,0-1.4516,0.65021-1.4516,1.45166   c0,0.80139,0.64972,1.4516,1.4516,1.4516H29.5484C30.35028,31,31,30.34979,31,29.5484V7.08099   C31,6.27911,30.35028,5.62933,29.5484,5.62933z"></path></g></svg>