<svg height='300px' width='300px'  fill="#eb3b49" xmlns="http://www.w3.org/2000/svg" xmlns:xlink="http://www.w3.org/1999/xlink" version="1.1" x="0px" y="0px" viewBox="0 0 100 100" style="enable-background:new 0 0 100 100;" xml:space="preserve"><g><path d="M50,25.5c-8,0-14.5,6.5-14.5,14.5c0,4.6,2.1,8.7,5.4,11.3c2.5,2,5.7,3.2,9.1,3.2s6.6-1.2,9.1-3.2c3.3-2.7,5.4-6.7,5.4-11.3   C64.5,32,58,25.5,50,25.5z"></path><path d="M50,6.6C26.1,6.6,6.6,26.1,6.6,50S26.1,93.4,50,93.4S93.4,73.9,93.4,50S73.9,6.6,50,6.6z M73.9,80l-0.7-11.5   c-0.7-7-5-12.9-10.9-15.9c-3.2,3.1-7.5,5-12.2,5s-9.1-1.9-12.2-5c-6,3-10.2,8.9-10.9,15.9L26.1,80c-8.8-7-14.5-17.9-14.5-30   c0-21.2,17.2-38.4,38.4-38.4S88.4,28.8,88.4,50C88.4,62.2,82.7,73,73.9,80z"></path></g></svg>