<svg xmlns="http://www.w3.org/2000/svg" xmlns:xlink="http://www.w3.org/1999/xlink" width="1200" height="1200" viewBox="0 0 1200 1200"><circle stroke="none" fill="#eb3b49" r="48%" cx="50%" cy="50%"></circle><g transform="translate(600 600) scale(0.69 0.69) rotate(0) translate(-600 -600)" style="fill:#ffffff"><svg fill="#ffffff" xmlns:x="http://ns.adobe.com/Extensibility/1.0/" xmlns:i="http://ns.adobe.com/AdobeIllustrator/10.0/" xmlns:graph="http://ns.adobe.com/Graphs/1.0/" xmlns="http://www.w3.org/2000/svg" xmlns:xlink="http://www.w3.org/1999/xlink" version="1.1" x="0px" y="0px" viewBox="0 0 100 100" style="enable-background:new 0 0 100 100;" xml:space="preserve"><g><g i:extraneous="self"><g><path d="M88.2,10.4h-9.1V6c0-1.8-1.5-3.3-3.3-3.3h-6.1c-1.8,0-3.3,1.5-3.3,3.3v4.4H33.6V6c0-1.8-1.5-3.3-3.3-3.3h-6.1     c-1.8,0-3.3,1.5-3.3,3.3v4.4h-9.1c-5.1,0-9.3,4.2-9.3,9.3v10.9h95V19.7C97.5,14.6,93.3,10.4,88.2,10.4z"></path><path d="M2.5,86.6c0,5.9,4.2,10.7,9.3,10.7h76.3c5.1,0,9.3-4.8,9.3-10.7V36.1h-95V86.6z M8.4,86.6v-7.7h16.3v12.5H11.8     C10,91.4,8.4,89.2,8.4,86.6z M69.3,72.9H53V60.5h16.3V72.9z M75.2,60.5h16.3v12.5H75.2V60.5z M53,78.9h16.3v12.5H53V78.9z      M47,91.4H30.7V78.9H47V91.4z M53,54.5V42h16.3v12.5H53z M47,54.5H30.7V42H47V54.5z M47,60.5v12.5H30.7V60.5H47z M24.8,72.9H8.4     V60.5h16.3V72.9z M88.2,91.4H75.2V78.9h16.3v7.7C91.6,89.2,90,91.4,88.2,91.4z M91.6,54.5H75.2V42h16.3V54.5z M24.8,42v12.5H8.4     V42H24.8z"></path></g></g></g></svg></g></svg>