<svg height='300px' width='300px'  fill="#ffffff" xmlns="http://www.w3.org/2000/svg" viewBox="0 0 32 32" x="0px" y="0px"><title>edit_1</title><g data-name="26-edit"><path d="M10.24,16.0008a2.3369,2.3369,0,0,0-.2272.45l-.9961,5.3662A1.0005,1.0005,0,0,0,10,23a1.0581,1.0581,0,0,0,.1826-.0166l5.3662-.9961a.9041.9041,0,0,0,.0912-.0367.9923.9923,0,0,0,.3538-.1869.9037.9037,0,0,0,.0794-.0528L28.1621,9.6221l2.5449-2.545a.9994.9994,0,0,0,0-1.414l-4.37-4.37a.9994.9994,0,0,0-1.414,0l-2.545,2.5449L10.2891,15.9268C10.2672,15.9486,10.2593,15.9775,10.24,16.0008Zm1.3928,2.6836,1.6829,1.6829-2.0666.3837ZM25.63,3.4141l2.956,2.956L27.4551,7.501,24.499,4.5449ZM23.085,5.959l2.956,2.956L15.3662,19.59l-2.956-2.956ZM31,14V28a3.0033,3.0033,0,0,1-3,3H4a3.0033,3.0033,0,0,1-3-3V4A3.0033,3.0033,0,0,1,4,1H18a1,1,0,0,1,0,2H4A1.0009,1.0009,0,0,0,3,4V28a1.0009,1.0009,0,0,0,1,1H28a1.0009,1.0009,0,0,0,1-1V14a1,1,0,0,1,2,0Z"></path></g></svg>